<?xml version="1.0" encoding="UTF-8"?>
<svg version="1.1" viewBox="0 0 1600 1600" width="1280" height="1280" xmlns="http://www.w3.org/2000/svg">
<path transform="translate(788,9)" d="m0 0c2.51 1.26 2.87 2.5 4 5h3c0.227-0.639 0.454-1.28 0.688-1.94 1.31-2.06 1.31-2.06 3.94-2.81 0.784-0.0825 1.57-0.165 2.38-0.25 0.66 1.65 1.32 3.3 2 5 2.97-1.12 5.33-2.22 8-4 3.19 0.375 3.19 0.375 6 1v2c2.64-0.66 5.28-1.32 8-2 0.66 0.99 1.32 1.98 2 3 1.49-0.99 1.49-0.99 3-2 2.63 0.247 3.69 0.669 5.5 2.62 0.743 0.681 0.743 0.681 1.5 1.38 2.14-0.0761 2.14-0.0761 4-1 0.33-0.66 0.66-1.32 1-2 3.24 0.559 4.93 1.41 7 4v2c2.87 0.25 2.87 0.25 6 0 1.7-1.45 1.7-1.45 3-3 0.969 0.887 1.94 1.77 2.94 2.69 4.01 3.46 8.37 5.91 13.1 8.31v-4c5.01 1.66 9.05 4.55 13.4 7.5 1.62 1.09 3.23 2.18 4.85 3.27 1.21 0.817 1.21 0.817 2.44 1.65 2.12 1.43 4.26 2.84 6.4 4.24 8.29 5.42 16.2 11.2 23.9 17.3l2.87 2.17c6.89 5.35 12.3 11.3 17.8 18.1 1.36 1.7 2.74 3.38 4.12 5.07 32.2 39.6 50 88.4 57.9 138 0.35 2.19 0.715 4.38 1.09 6.57 4.58 27 6.43 53.6 6.45 81 0.00177 1.45 0.00177 1.45 0.00357 2.92-0.00407 29.4-0.00407 29.4-2.19 37.7-0.0289 3.08 0.065 6.14 0.16 9.22-0.16 2.78-0.16 2.78-2.16 5.78 0.266 1.93 0.536 3.86 0.838 5.78 0.173 2.37-0.141 4.07-0.744 6.36-1.39 5.81-1.82 11.6-2.3 17.6-0.448 5.02-1.29 9.47-2.79 14.3-0.23 1.33-0.427 2.66-0.562 4-0.281 2.63-0.633 5.19-1.06 7.81-0.606 3.2-0.606 3.2 0.625 6.19 3.54 1.82 7.08 2.45 11 3 0.33-0.66 0.66-1.32 1-2 0.722 0.516 1.44 1.03 2.19 1.56 3.29 1.68 4.36 1.44 7.81 0.438h3v2c1.26 0.0206 2.52 0.0412 3.81 0.0625 0.708 0.0116 1.42 0.0232 2.14 0.0352 2.25-0.015 2.25-0.015 5.04-1.1 1.67 0.742 1.67 0.742 3.38 1.5 3.81 1.57 4.83 1.48 8.62 0.5 0.66 0.66 1.32 1.32 2 2 2.38 0.441 4.78 0.78 7.19 1.06 1.29 0.156 2.59 0.312 3.92 0.473 1.29 0.153 2.57 0.307 3.89 0.465 4.03 0.545 8.02 1.16 12 2 4.81 0.977 9.59 1.79 14.5 2.21 4.62 0.395 8.21 1.04 12.5 2.79h3.5c3.44 0 5.44 0.516 8.5 2v2c0.949-0.433 1.9-0.866 2.88-1.31 3.85-1.16 5.94-0.124 9.44 1.69 1.26 0.723 1.26 0.723 2.55 1.46 2.02 1.32 2.02 1.32 4.14 1.16 0.33-0.66 0.66-1.32 1-2 2.39 0.576 4.67 1.22 7 2 1.19 2.06 1.19 2.06 2 4 0.578-0.309 1.16-0.619 1.75-0.938 2.18-1.03 3.86-1.73 6.25-2.06 1.92 0.926 1.92 0.926 3.75 2.31 0.614 0.45 1.23 0.9 1.86 1.36 0.459 0.437 0.918 0.874 1.39 1.32v2h3c0.33-1.32 0.66-2.64 1-4 0.598 0.309 1.2 0.619 1.81 0.938 2.28 1.16 2.28 1.16 5.19 2.06 0.688 2.06 0.688 2.06 1 4 2.97-0.342 2.97-0.342 6-1 0.33-0.66 0.66-1.32 1-2h4v2c0.99 0.33 1.98 0.66 3 1v2h2c0.33 0.66 0.66 1.32 1 2 2.47-0.344 2.47-0.344 5-1 0.33-0.66 0.66-1.32 1-2 3.48 1.22 5.43 2.43 8 5 1.98 1.05 3.97 2.05 6 3 1.49-1.98 1.49-1.98 3-4 0.748 0.566 1.5 1.13 2.27 1.71 0.985 0.733 1.97 1.47 2.98 2.22 0.975 0.731 1.95 1.46 2.95 2.21 2.42 1.6 3.97 2.42 6.8 2.85v-3c3.45 0.64 5.85 2 8.75 3.94 0.799 0.525 1.6 1.05 2.42 1.59 0.905 0.729 0.905 0.729 1.83 1.47v2c1.98-0.267 1.98-0.267 4-1 0.33-0.99 0.66-1.98 1-3 2.83 1.38 5.56 2.86 8.25 4.5 0.706 0.423 1.41 0.846 2.14 1.28 0.531 0.402 1.06 0.804 1.61 1.22v2c3.88 0.434 3.88 0.434 5.75-1.5 0.412-0.495 0.825-0.99 1.25-1.5 0.66 0.33 1.32 0.66 2 1v2c0.928 0.268 1.86 0.536 2.81 0.812 3.07 1.14 4.06 1.87 6.19 4.19 2.87 2.05 3.86 2.02 7.44 1.44 5.94-0.73 9.73 3.33 14.4 6.75l2.96 2.17 2.23 1.64c0.66-0.66 1.32-1.32 2-2 1.94-0.812 1.94-0.812 4-1 1.44 1.25 1.44 1.25 3 3 1.64 1.05 3.31 2.04 5 3 0.62 0.356 1.24 0.712 1.88 1.08 1.7 0.978 3.41 1.95 5.12 2.92v2c2.42 0.167 2.42 0.167 5 0 0.66-0.66 1.32-1.32 2-2 5.46 2.91 10.3 6.36 15.3 10.1 2.81 1.95 5.66 3.45 8.75 4.9v2h3v-3c0.583 0.294 1.17 0.587 1.77 0.89 1.36 0.674 2.72 1.34 4.09 1.98 5.2 2.47 9.66 5.53 14.3 8.95 8.72 6.31 17.6 10.9 27.5 15.2 9.95 4.35 18.7 10.5 27.4 17 1.18 0.857 2.35 1.71 3.53 2.57 15.6 11.3 30.2 23 43.7 36.7 5.18 5.25 10.9 9.58 16.8 13.9 2.81 2.34 4.72 5.14 6.81 8.12 2.42 3.44 4.66 6.3 7.94 8.94 5.55 4.53 9.59 10.3 13.9 16 1.76 2.29 3.59 4.51 5.42 6.74 24.5 30.7 40.8 66.2 50.9 104 0.24 0.88 0.48 1.76 0.728 2.67 2.93 10.9 3.79 21 3.27 32.3h-2c0.66 0.99 1.32 1.98 2 3 1.55 6.22 2.04 13.9 0 20h-2c0.334 0.583 0.668 1.17 1.01 1.77 1.64 3.71 0.628 7.35-0.0117 11.2l-0.531 3.41c-2.63 15.4-6.31 30.5-13.7 44.3-1.85 3.46-3.27 6.64-4.19 10.5-3.9 14.6-18.9 33.5-30.6 42.9-0.712 0.353-1.42 0.706-2.16 1.07-2.02 0.79-2.02 0.79-2.84 2.93h-2c-0.232 0.553-0.464 1.11-0.703 1.68-1.65 2.95-3.69 5.09-6.05 7.51-0.84 0.88-1.68 1.76-2.55 2.67-3.04 2.41-4.93 2.68-8.7 3.14-1.57 2.29-1.57 2.29-3 5-6.73 6.26-14.9 10.6-22.9 15-0.794 0.439-1.59 0.879-2.41 1.33-8.52 4.69-17.2 8.92-26 13-5.17 2.4-10.3 4.96-15.3 7.6-2.39 1.07-2.39 1.07-5.39 1.07-0.33-0.66-0.66-1.32-1-2h-2c-0.371 1.14-0.371 1.14-0.75 2.31-1.39 2.99-2.4 4.09-5.25 5.69h-4c-0.33-0.99-0.66-1.98-1-3-4.13 0.806-7.16 2.82-10.7 5.04-2.85 1.18-4.4 0.815-7.32-0.0391-0.33 0.99-0.66 1.98-1 3h-2v-3c-3.1 0.754-3.1 0.754-4.88 3.12-0.701 0.619-1.4 1.24-2.12 1.88-0.777-0.174-1.55-0.348-2.36-0.527-3.3-0.59-4.29 0.076-7.08 1.84-3.45 2.08-6.66 3.59-10.6 4.69-0.66-1.32-1.32-2.64-2-4-4.22 1.23-4.22 1.23-7.94 3.5-2.81 2.04-5.72 2.66-9.06 3.5-0.33-1.65-0.66-3.3-1-5-0.519 0.277-1.04 0.554-1.57 0.84-3.79 1.97-7.13 3.62-11.4 4.16-0.66-1.32-1.32-2.64-2-4-4.32 1.27-4.32 1.27-8.06 3.69-1.94 1.31-1.94 1.31-4.62 1.12-2.31-0.812-2.31-0.812-3.31-2.81-3.62 0.436-3.62 0.436-6.5 2.5-2.1 2.1-3.55 2.43-6.5 2.5-1.35-1.31-2.69-2.65-4-4-2.45 0.153-3.91 0.952-6.06 2.12-1.94 0.875-1.94 0.875-4.94-0.125-0.33-0.99-0.66-1.98-1-3-2.47 1.15-4.05 2.05-6 4-2.32 0.4-4.66 0.74-7 1-0.66-1.65-1.32-3.3-2-5h-4c-0.33 1.32-0.66 2.64-1 4-1.65-0.33-3.3-0.66-5-1-0.33-0.99-0.66-1.98-1-3-0.99-0.33-1.98-0.66-3-1-0.247 0.639-0.495 1.28-0.75 1.94-1.25 2.06-1.25 2.06-3.38 2.81-0.619 0.0825-1.24 0.165-1.88 0.25-2-3-2-3-2-6-2.89 0.398-3.82 0.79-5.75 3.06-0.412 0.639-0.825 1.28-1.25 1.94-1.88-0.188-1.88-0.188-4-1-1.25-2.56-1.25-2.56-2-5-0.743 0.825-1.48 1.65-2.25 2.5-2.75 2.5-2.75 2.5-6.75 2.5-0.33-1.98-0.66-3.96-1-6h-3c-0.33 1.32-0.66 2.64-1 4-1.65 0.33-3.3 0.66-5 1-0.66-2.31-1.32-4.62-2-7-3.01 2.01-3.63 2.84-5 6-2.38-0.188-2.38-0.188-5-1-1.31-2.56-1.31-2.56-2-5h-2c-0.402 0.959-0.402 0.959-0.812 1.94-1.19 2.06-1.19 2.06-4.19 3.06-3-3.63-3-3.63-3-7-3.63 1.87-3.63 1.87-6 5-1.32-0.33-2.64-0.66-4-1-0.33-1.32-0.66-2.64-1-4h-6c-0.33 0.99-0.66 1.98-1 3-0.99-0.33-1.98-0.66-3-1-0.33-0.66-0.66-1.32-1-2-0.99-0.33-1.98-0.66-3-1-0.33 0.66-0.66 1.32-1 2-0.371-0.959-0.371-0.959-0.75-1.94-1.05-2.26-1.05-2.26-3.33-2.69-0.951-0.184-0.951-0.184-1.92-0.371-0.0198 0.689-0.0396 1.38-0.0601 2.09-1.03 34-1.03 34-3.94 36.9-0.247 4.14-0.247 4.14 1 8-0.454 0.887-0.908 1.77-1.38 2.69-2.33 4.99-2.13 10.3-2.32 15.7-0.301 3.54-1.07 6.31-2.31 9.62-0.697 2.79-0.999 5.05-0.938 7.94-0.0696 3.41-0.949 5.85-2.06 9.06-0.574 3.25-0.965 6.46-1.18 9.75-0.0657 0.969-0.131 1.94-0.199 2.94-0.049 0.911-0.098 1.82-0.148 2.76-0.546 2.92-1.72 4.21-3.48 6.55 0.26 1.98 0.526 3.96 0.867 5.93 0.217 3.37-1.5 6.03-2.87 9.07-0.36 2.63-0.558 5.22-0.691 7.86-0.309 2.14-0.309 2.14-2.31 4.14-0.648 2.49-0.648 2.49-1.06 5.31-0.156 0.945-0.312 1.89-0.473 2.86-0.153 0.932-0.307 1.86-0.465 2.82-0.186 0.879-0.371 1.76-0.562 2.66-0.54 2.44-0.54 2.44-0.375 5.4-0.0644 3.02-0.382 4.46-2.06 6.94l-3 2c0.0954 0.675 0.191 1.35 0.289 2.05 0.111 0.892 0.222 1.78 0.336 2.7 0.116 0.882 0.232 1.76 0.352 2.67 0.0261 2.87-0.381 4.21-1.98 6.58l-3 2c0.567 4.13 0.567 4.13 2 8-0.66 0.33-1.32 0.66-2 1-0.33 0.99-0.66 1.98-1 3-1 3-1 3-3 4 0.371 1.24 0.371 1.24 0.75 2.5 0.335 4.69-1.33 7.57-3.75 11.5-0.33 0.33-0.66 0.66-1 1 0.0588 1.75 0.147 3.5 0.25 5.25 0.0469 3.05 0.0469 3.05-0.25 5.75-0.825 0.804-1.65 1.61-2.5 2.44-2.8 2.3-2.8 2.3-2.66 5.38 0.0773 1.6 0.0773 1.6 0.156 3.24 0.152 3.22 0.152 3.22 0 5.94-1.63 1.38-3.3 2.71-5 4-0.437 2.46-0.437 2.46-0.5 5.25-0.223 5.1-1.39 7.7-4.3 11.8-1.7 2.77-2.16 5.5-2.75 8.66-1.06 5.44-2.37 10.4-6.14 14.5-2.52 2.5-2.52 2.5-2.69 5.44 0.336 2.46 0.336 2.46 1.38 5.31-1.25 2.62-1.25 2.62-3 5-0.99 0.33-1.98 0.66-3 1-0.928 1.95-0.928 1.95-1.5 4.38-0.247 0.898-0.495 1.8-0.75 2.72-0.503 1.94-1 3.89-1.5 5.84-2.5 9.6-2.5 9.6-5.25 13.1h-2c-0.402 1.49-0.402 1.49-0.812 3-0.971 3.4-2.14 6.68-3.42 9.97-0.496 1.31-0.96 2.63-1.38 3.96-1.7 5.19-4.43 9.1-7.62 13.5-3.96 5.74-6.58 12-9.14 18.5-2.28 5.52-5.07 10.3-8.41 15.3-1.45 2.15-2.89 4.32-4.32 6.49-3.61 5.45-7.25 10.9-10.9 16.3-0.555 0.827-1.11 1.65-1.68 2.5-11.9 17.7-24.5 34.7-37.7 51.4-1.59 2.02-3.17 4.05-4.76 6.08-2.61 3.35-5.25 6.68-7.89 10-0.559 0.717-1.12 1.43-1.7 2.17-2.53 3.13-5.12 5.51-8.37 7.89-4.34 3.23-7.83 6.94-11.4 10.9-4.15 4.59-8.24 8.71-13.3 12.4-2.67 1.95-5.2 4.03-7.74 6.14-4.77 3.92-9.58 7.76-14.5 11.5l-2.41 1.86c-16.4 12.4-35.3 21.7-53.7 30.6-0.877 0.434-1.75 0.868-2.66 1.31-3.73 1.79-7.06 3.34-11.2 3.81-3.24 0.0616-3.24 0.0616-5.21 2.88-0.598 0.825-1.2 1.65-1.81 2.5-2.25 0.812-2.25 0.812-4 1-0.66-1.32-1.32-2.64-2-4-0.675 0.349-1.35 0.699-2.05 1.06-1.34 0.683-1.34 0.683-2.7 1.38-0.882 0.452-1.76 0.905-2.67 1.37-2.26 1.04-4.12 1.84-6.58 2.19-1.58-0.588-1.58-0.588-3.19-1.19-5.94-1.27-9.78 1.55-14.9 4.32-2.39 1.09-4.3 1.01-6.9 0.867v-2c-4.48-0.395-7.1 0.881-11 3-3.39 1.13-4.5 0.794-7.88-0.0625-4.03-0.889-6.45-1.14-10.1 1.06v-2c-5.53-0.439-5.53-0.439-10.5 1.5-0.495 0.495-0.99 0.99-1.5 1.5-0.33-1.32-0.66-2.64-1-4h-8c-0.33 0.66-0.66 1.32-1 2-0.779-0.524-0.779-0.524-1.57-1.06-5.3-3.48-5.3-3.48-11.4-4.94-0.33 0.66-0.66 1.32-1 2v-2h-2c-0.33 0.66-0.66 1.32-1 2l-1.56-1.88c-2.98-2.6-5.62-3.24-9.44-4.12-0.66 0.99-1.32 1.98-2 3v-3c-0.99 0.33-1.98 0.66-3 1-3.13-2.01-6.08-4.13-9.02-6.4-3.65-2.62-5.96-3.88-10.5-3.61-5.24 0.307-7.79-1.67-11.7-4.93-1.3-1.02-2.6-2.04-3.91-3.05-0.643-0.51-1.29-1.02-1.95-1.55-2.8-2.17-5.71-4.12-8.64-6.09-9.93-6.87-18.1-14-25.7-23.3-2.15-2.57-4.33-4.89-6.75-7.19-4.61-4.48-8.13-9.63-11.8-14.9-1.33-1.79-2.67-3.58-4-5.38-6.2-8.56-11.5-17.6-16.6-26.9-0.509-0.926-0.509-0.926-1.03-1.87-6.67-12.6-11.4-26.2-15.8-39.7-0.754-2.28-1.52-4.56-2.29-6.84-4.4-13.2-8-26.4-10.3-40.1-0.161-0.942-0.322-1.88-0.488-2.86-1.55-9.25-2.86-18.5-4.12-27.8-0.67-4.88-1.36-9.69-2.5-14.5-0.856-3.64-1.13-7.03-1.08-10.8 0.00645-1.06 0.0129-2.11 0.0195-3.2 0.168-3.11 0.168-3.11 0.738-6.29 0.482-3.17-0.215-5.3-1.09-8.34-1.29-6.6-1.21-14 0.516-20.5-0.144-0.846-0.289-1.69-0.438-2.56-1.94-11.8-1.94-11.8 0.512-16.5 1.26-2.68 0.615-4.14-0.0742-6.98-0.0891-1.89-0.13-3.79-0.125-5.69-0.00258-0.953-0.00516-1.91-0.00781-2.89 0.133-2.43 0.133-2.43 1.13-4.43 0.031-3.25-0.0675-6.49-0.16-9.74 0.16-3.26 0.16-3.26 1.16-5.77 1.27-3.17 1.12-5.65 0.996-9.05-0.0892-5.7 0.425-10.9 1.5-16.5 0.699-4.11 0.937-8.21 1.16-12.4 0.344-2.59 0.344-2.59 1.37-4.62 1.23-2.51 1.14-4.33 1.04-7.1-0.16-4.68-0.16-4.68 0.938-6.88 0.0707-2.04 0.0842-4.08 0.0625-6.12l-0.0273-3.32-0.0352-2.55c-0.856 0.171-1.71 0.343-2.59 0.52-3.45 0.486-6.44 0.444-9.91 0.168-1.62-0.118-1.62-0.118-3.28-0.238-3.22-0.449-3.22-0.449-6.43-1.53-2.8-1.17-2.8-1.17-5.85-0.359-3.71 0.552-4.93-0.476-7.94-2.56h-2c-0.33 0.66-0.66 1.32-1 2-1.65-0.66-3.3-1.32-5-2v-2c-0.699 0.228-1.4 0.456-2.12 0.691-0.91 0.287-1.82 0.575-2.76 0.871-1.36 0.435-1.36 0.435-2.74 0.879-2.38 0.559-2.38 0.559-4.38-0.441-0.33-0.99-0.66-1.98-1-3h-3c-0.33 0.66-0.66 1.32-1 2-2.87-0.312-2.87-0.312-6-1-0.66-0.99-1.32-1.98-2-3-3-0.332-3-0.332-4.69 1.5-0.433 0.495-0.866 0.99-1.31 1.5-0.743-0.454-1.48-0.908-2.25-1.38-5.93-3.54-5.93-3.54-12.7-2.88-3.06 0.25-3.06 0.25-5.44-1.69-0.536-0.681-1.07-1.36-1.62-2.06l-3 2c-2.56-0.125-2.56-0.125-5-1-1.31-2.06-1.31-2.06-2-4-1.08 0.773-1.08 0.773-2.19 1.56-2.81 1.44-2.81 1.44-5.25 1.38-3.23-1.18-5.76-2.95-8.56-4.94l-2-1-3 3c-3.46-1.25-6.15-2.68-9-5-2.97 1.49-2.97 1.49-6 3-5.88-4.75-5.88-4.75-7-7-2.87 0.573-3.86 0.861-6 3l-1.61-1.09-2.14-1.41-2.11-1.41c-2.33-1.4-2.33-1.4-6.14-1.09l-1 2h-3l-1-2-1.88-0.938c-2.13-1.06-2.13-1.06-3.62-2.75l-1.5-1.31c-2.16 0.228-2.16 0.228-4 1v2c-5.51-1.02-8.77-3.54-12-8h-2l-2 5h-2l-2-3c-1.69-1.13-1.69-1.13-3.56-2.06-3.44-1.94-3.44-1.94-4.44-3.94h-3l-1 4h-2v-3h-4l-1-2c-1.98-1.05-3.97-2.05-6-3v-2l-2.25 1.5c-2.75 1.5-2.75 1.5-6.75 1.5-1.37-1.29-2.71-2.63-4-4-0.99-0.33-1.98-0.66-3-1l-2-3c-0.99-0.33-1.98-0.66-3-1l-1 5c-0.99-0.33-1.98-0.66-3-1l-1-2c-0.99-0.33-1.98-0.66-3-1l-1-2c-2.9-1.88-5.89-3.5-9-5l-2 3h-3l-1-2-2.5-1c-2.5-1-2.5-1-3.5-3-2.02-0.652-2.02-0.652-4-1v-3l-5-1-1 3c-4.75-0.297-7.47-2.67-11.1-5.51-2.04-1.64-2.04-1.64-4.94-3.24l-2-1.25v-2h-4v3c-3.24-0.625-5.42-1.76-8.12-3.62-0.777-0.531-1.55-1.06-2.36-1.61-1.76-1.23-3.51-2.47-5.26-3.72l-2.7-1.92-2.5-1.8c-1.94-1.5-1.94-1.5-4.07-1.32-0.66 0.99-1.32 1.98-2 3-4.71-2.19-8.37-4.27-12.3-7.66-2.89-2.33-6.04-4.23-9.22-6.15l-1.96-1.23c-3.81-2.31-6.13-2.98-10.5-2.96-5.46-2.07-10-5.32-14.6-8.88-6.14-4.63-12.5-8.84-19-12.9-18.5-11.7-36.3-23.7-53.2-37.6-3.22-2.64-6.53-5.17-9.83-7.71-10.1-7.8-19.6-15.7-28.1-25.2-3.22-3.58-6.56-6.98-10-10.3-3.61-3.57-6.76-7.12-9.69-11.3-1.73-2.3-3.65-4.33-5.62-6.43-6.36-6.97-11.6-14.8-16.9-22.6l-1.25-1.85c-16.9-25.2-30.7-53.6-37.7-83.2-0.438-1.8-0.877-3.59-1.32-5.39-4.99-20.6-4.99-20.6-4.68-29.6l1-1c0.331-5.36 0.331-5.36-1-10.4-1.49-3.81-1.53-7.52-1-11.6 1.56-2.25 1.56-2.25 3-4-0.278-2.39-0.278-2.39-1-5-0.307-4.07-0.106-7.05 1.5-10.8 1.8-4.3 1.67-8.13 1.41-12.7 0.0968-2.71 0.707-4.21 2.09-6.52h2c0.802-3.03 1.04-4.85 0.312-7.94-0.431-4.23 1.21-5.69 3.69-9.06 1.87-3.9 3.16-7.57 4.25-11.8 1.82-6.18 5.09-11 8.75-16.2 0.677-0.974 0.677-0.974 1.37-1.97 3.05-4.38 6.13-8.73 9.23-13.1 1.22-1.7 2.43-3.41 3.64-5.11 14-19.6 14-19.6 22.3-24.3 2.87-1.82 4.61-3.88 6.77-6.5 3.29-3.77 5.98-6.28 10.7-8.05 2.39-1.2 4.21-2.86 6.23-4.59 3.52-2.79 7.43-5.01 11.3-7.3 1.33-0.79 1.33-0.79 2.68-1.6 11.8-6.98 24.2-12.9 36.8-18.2 3.1-1.25 3.1-1.25 6-3.31 2.21-0.844 4.46-1.55 6.71-2.26 1.91-0.617 3.79-1.32 5.66-2.05l2.62-0.688 3 2 1-3c2.81-2.75 2.81-2.75 6-5 2.06 0.125 2.06 0.125 4 1 2.28 1.02 2.28 1.02 5 1 2.07-1.14 3.98-2.45 5.93-3.79 3.04-1.78 5.59-2 9.07-2.21v4c4.85-1.98 4.85-1.98 9.38-4.56 3.16-1.73 6.11-2.29 9.64-2.91 2.2-0.406 2.2-0.406 3.99-2.53v4c5.61-1.56 10.9-3.16 16-6l1 4c5.96-1.01 10-2.43 15-6h3c0.66 1.32 1.32 2.64 2 4 3.51-1 6.13-2.09 9.19-4.12 2.81-1.88 2.81-1.88 5.81-1.88 0.66 1.32 1.32 2.64 2 4l2.19-0.875c2.6-1.04 5.21-2.08 7.81-3.12l2 4c4.48-1.14 8.15-2.43 12-5 1.5 1.38 1.5 1.38 3 3v2l2.19-0.875c2.6-1.04 5.21-2.08 7.81-3.12l2 4c2.96-0.613 4.38-1.25 7-3 2.63 0.25 2.63 0.25 5 1l1 2c4.82-0.325 4.82-0.325 8.94-2.56l1.06-1.44 2 4c5.32 0.296 5.32 0.296 10-2l2 1 1 3c2.87-0.573 3.86-0.861 6-3 2.06 0.188 2.06 0.188 4 1l1 3c3.69-0.498 5.6-1.1 8-4l2.19 2c3.03 2.16 4.2 2.59 7.81 2l2-2 1 3c1.44 0.169 2.87 0.335 4.31 0.5l2.43 0.281c2.38 0.267 2.38 0.267 5.26 0.219 2.49 0.266 4.96 0.557 7.44 0.875 0.668 0.0786 1.34 0.157 2.03 0.238 3.59 0.462 6.37 1.17 9.54 2.89 3.17 0.167 3.17 0.167 6 0 5.61-11 5.57-24.5 6.86-36.5 0.644-5.84 1.48-11.6 2.7-17.3 0.575-2.81 0.925-5.62 1.25-8.47 1.48-11.6 3.62-23.1 5.65-34.6 0.365-2.1 0.717-4.19 1.06-6.29 0.485-2.81 0.485-2.81 1.36-6.19 1.04-4.01 1.77-8.05 2.5-12.1 1.28-7.08 2.94-14 4.76-21 0.996-4.05 1.95-7.91 1.74-12.1 0.125-2.44 0.125-2.44 1.56-4.69 2.42-4.26 2.56-8.9 2.56-13.8h2c0.34-1.56 0.671-3.12 1-4.69l0.562-2.64c0.526-2.62 0.526-2.62 0.312-5.07 0.138-2.87 1.05-4.85 2.24-7.44 1.93-4.72 3.07-9.74 4.39-14.7 3.29-12.3 3.29-12.3 5.12-16.4 1.77-3.99 2.6-7.99 3.53-12.2 0.885-3.01 2.17-5.23 3.84-7.87 1.04-3.52 1.04-3.52 0.25-7l-0.25-2 2.38-2.25c2.9-3.04 3.17-4.67 3.46-8.77 0.353-4.25 1.91-7.56 4.1-11.2 2.3-3.85 3.25-7.84 4.35-12.2 1.14-4.24 2.55-8.16 5.28-11.7 2.52-3.5 3.31-7.56 3.69-11.8 1.17-4.97 4.06-8.89 6.75-13.2 1.99-3.54 3.23-6.79 4.25-10.7 1.47-5.16 4.01-9.08 6.97-13.5 3.32-5.24 6.13-10.9 7.48-17 1.52-5.5 5.13-10 8.3-14.7 4.69-7.04 9.26-14.1 13.3-21.5 0.394-0.722 0.788-1.44 1.19-2.19 1.58-2.91 3.13-5.83 4.69-8.75 10.5-19.6 23.2-36.8 38.3-53 2.51-2.68 2.51-2.68 4.68-5.58 0.891-1.06 0.891-1.06 1.8-2.15h2l0.648-1.58c1.91-3.41 4.41-6.17 6.98-9.11 0.541-0.621 1.08-1.24 1.64-1.88 1.08-1.24 2.17-2.48 3.25-3.72 1.26-1.45 2.5-2.91 3.74-4.38 3.79-4.44 7.69-7.92 12.4-11.4 2.78-2.3 5.04-4.86 7.42-7.58 3.43-3.9 6.49-6.64 11-9.14 2.32-1.49 4.03-3.24 5.93-5.24 3.06-3.19 6.02-5.47 9.84-7.65 2.22-1.38 4.15-2.91 6.17-4.57 5.3-4.16 11-7.41 16.9-10.7 1.09-0.607 2.19-1.21 3.31-1.84 8.77-4.82 17.7-9.19 26.8-13.4 5.77-2.67 11.5-5.55 17.1-8.58 4-1.83 6.61-1.57 10.9-1.35 0.245-0.614 0.49-1.23 0.742-1.86 1.51-2.57 2.7-3.18 5.38-4.39 0.724-0.335 1.45-0.67 2.2-1.02 0.554-0.242 1.11-0.485 1.68-0.734 0.33 1.32 0.66 2.64 1 4 5.08-0.484 7.82-2.18 12-5 2.32-0.848 4.59-1.42 7-2 0.33 1.65 0.66 3.3 1 5 4.11-1.41 7.52-3.51 11.1-5.88 1.87-1.12 1.87-1.12 4.87-2.12zm107 239c-2.85 2.14-5.7 2.88-9.08 3.93-2.63 0.914-4.81 2.29-7.17 3.75-0.99 0.309-1.98 0.619-3 0.938-3.09 0.901-3.09 0.901-5.44 3.06-3.17 2.48-5.67 3.08-9.56 4-0.0825 0.619-0.165 1.24-0.25 1.88-0.75 2.12-0.75 2.12-2.56 3.38-2.19 0.75-2.19 0.75-6.19 0.75-2.73 2.27-4.74 4.66-6.89 7.49l-2.05 2.7c-0.628 0.86-1.26 1.72-1.9 2.61-2.58 2.63-4.69 3.09-8.16 4.21-2.28 1.9-2.28 1.9-4.25 4.31-0.771 0.897-1.54 1.79-2.34 2.72-2.92 3.59-5.76 7.25-8.55 10.9-2.94 3.89-6.04 7.59-9.24 11.3-4.22 4.89-8.08 9.98-11.8 15.2-0.463 0.651-0.925 1.3-1.4 1.97-3.65 5.23-6.96 10.6-10.3 16.1-2.11 3.44-4.31 6.82-6.52 10.2-0.546 0.829-0.546 0.829-1.1 1.67-1.48 2.25-2.97 4.49-4.45 6.73-1.11 1.67-2.21 3.35-3.32 5.03-0.646 0.975-1.29 1.95-1.96 2.95-2.72 4.39-4.85 8.6-6.09 13.6-1.75 6.14-4.71 12.3-9.31 16.8-1.64 1.47-1.64 1.47-2.38 4.4 1.02 4.15 1.37 5.58 5 8 3.37-0.327 5.42-1.88 8-4 0.66 1.32 1.32 2.64 2 4 3.56-0.61 6.68-1.58 10-3 0.33 0.99 0.66 1.98 1 3 2.96 1.22 5 0.965 8 0 0.33-1.32 0.66-2.64 1-4h6c0.99 1.98 0.99 1.98 2 4 0.557-0.309 1.11-0.619 1.69-0.938 2.52-1.16 4.54-1.85 7.31-2.06l3 3c3.13 0.25 3.13 0.25 6 0 0.33-1.32 0.66-2.64 1-4 6.4-0.492 6.4-0.492 9.44 2 0.516 0.66 1.03 1.32 1.56 2 1.32-0.99 2.64-1.98 4-3 0.557 0.309 1.11 0.619 1.69 0.938 2.52 1.16 4.54 1.85 7.31 2.06 0.474-0.474 0.949-0.949 1.44-1.44 1.56-1.56 1.56-1.56 4.75-1.75 0.928 0.0619 1.86 0.124 2.81 0.188v2c2.29 0.86 2.29 0.86 5 1 2.33-1.83 2.33-1.83 4-4 0.66 1.32 1.32 2.64 2 4 0.66-0.66 1.32-1.32 2-2 0.66 0.99 1.32 1.98 2 3 0.99-0.33 1.98-0.66 3-1 0.33-0.66 0.66-1.32 1-2 3.37 0.547 5.08 1.05 8 3 3.14-0.315 3.14-0.315 6-1 0.33-0.99 0.66-1.98 1-3h2c1.62 2 1.62 2 3 4 0.763-0.309 1.53-0.619 2.31-0.938 1.88-0.741 3.77-1.42 5.69-2.06 0.33 0.99 0.66 1.98 1 3 5.08 0.113 5.08 0.113 10-1v-2c0.495 0.681 0.99 1.36 1.5 2.06 2.81 2.17 3.27 2.18 6.62 1.81 3.87-0.511 3.87-0.511 5.88-2.88 0.722 0.495 1.44 0.99 2.19 1.5 3.01 1.6 4.47 1.94 7.81 1.5 0.99-0.66 1.98-1.32 3-2v3c1.98 0.33 3.96 0.66 6 1 0.66-0.99 1.32-1.98 2-3 3 0 3 0 4.5 1.44 0.495 0.516 0.99 1.03 1.5 1.56 0.99 0.33 1.98 0.66 3 1 0.413-0.495 0.825-0.99 1.25-1.5 1.75-1.5 1.75-1.5 5.75-1.5v2c4.78 1.02 4.78 1.02 9.44 0.0625 0.516-0.351 1.03-0.701 1.56-1.06v2c2.31 0.33 4.62 0.66 7 1 0.66-0.99 1.32-1.98 2-3 0.66 1.32 1.32 2.64 2 4 5.08 0.113 5.08 0.113 10-1 0.66 0.66 1.32 1.32 2 2 3.5 0.333 3.5 0.333 7 0 2.42-1.98 2.42-1.98 2.25-5.81-0.115-4.85-0.83-9.54-1.62-14.3-0.584-3.61-1.09-7.22-1.58-10.8-0.642-4.68-1.34-9.35-2.04-14-0.163-1.08-0.327-2.17-0.495-3.28-2.5-16.2-6.14-31.4-11.5-46.9-1.05-3.04-2.06-6.08-3.07-9.13-5.39-16.2-12-33.5-23.2-46.7-2.05-2.45-3.82-5.04-5.64-7.66-5.77-7.96-12.8-13.2-21.1-18.4-0.868 0.551-0.868 0.551-1.75 1.11-2.25 0.887-2.25 0.887-4.21 0.242-0.651-0.385-1.3-0.771-1.97-1.17-3.02-1.66-5.55-2.98-9.06-3.19-0.66 0.66-1.32 1.32-2 2-3.12 0.125-3.12 0.125-6 0v-2c-3.63-0.33-3.63-0.33-6.75 1.31zm-168 223c-1.51 2.76-2.35 5.15-2.86 8.25-0.143 0.827-0.286 1.65-0.434 2.51-0.151 0.886-0.301 1.77-0.457 2.69-1.7 9.47-4.13 18.6-6.86 27.8-2.31 7.83-4.06 15.7-5.39 23.8-0.319 1.61-0.651 3.21-1 4.81-0.165 0.77-0.33 1.54-0.5 2.33-0.5 1.86-0.5 1.86-1.5 2.86-0.163 1.56-0.279 3.13-0.375 4.7-0.57 6.88-2.06 13.5-3.62 20.2-0.542 2.37-1.08 4.74-1.62 7.12-0.24 1.03-0.48 2.07-0.727 3.14-0.214 0.948-0.428 1.9-0.648 2.87-0.214 0.887-0.428 1.77-0.648 2.69-0.554 2.46-0.554 2.46 0.648 5.31-0.774 3.15-1.55 6.09-3 9 0.0412 1.2 0.0825 2.39 0.125 3.62 0.0966 5.39-0.989 10.5-2.15 15.7-0.827 3.94-0.947 6.79 0.021 10.7-0.0156 2.35-0.0156 2.35-0.25 4.62-0.067 0.755-0.134 1.51-0.203 2.29-0.653 2.49-1.7 3.36-3.55 5.09-0.496 3.22-0.286 4.56 1.5 7.31 0.495 0.557 0.99 1.11 1.5 1.69-0.656 0.637-1.31 1.27-1.99 1.93-2.75 4.19-2.42 7.31-2.2 12.2 0.0372 1.7 0.0711 3.4 0.102 5.1 0.0276 1.23 0.0276 1.23 0.0557 2.48 0.0391 2.97-0.07 5.9-0.282 8.86-0.058 0.826-0.116 1.65-0.176 2.5-0.512 1.93-0.512 1.93-3.51 3.93 0.309 0.578 0.619 1.16 0.938 1.75 1.78 3.78 2.22 6.72 1.75 10.9-0.0786 0.776-0.157 1.55-0.238 2.35-0.449 2.02-0.449 2.02-2.45 4.02-0.167 2.58-0.167 2.58 0 5 0.99 0.33 1.98 0.66 3 1-0.282 1.79-0.576 3.58-0.875 5.38-0.244 1.5-0.244 1.5-0.492 3.02-0.633 2.6-0.633 2.6-2.63 4.6 0.314 3.96 0.748 7.24 2 11 0.324 4.75-0.701 8.45-2 13-0.321 4.18-0.364 5.45 2 9-0.316 3.54-0.875 6.63-2 10-0.352 4.3-0.307 8.08 1.06 12.2 1.44 4.32 0.342 7.6-1.06 11.8-0.196 2.08-0.196 2.08-0.188 4.31-0.0142 0.739-0.0284 1.48-0.043 2.24 0.14 2.56 0.14 2.56 1.23 5.28 1.15 3.67 1.19 6.71 1.12 10.5-0.018 1.25-0.0361 2.49-0.0547 3.77-0.0232 0.941-0.0464 1.88-0.0703 2.85-3.41 1.65-6.83 3.3-10.2 4.94-0.968 0.469-1.94 0.937-2.93 1.42-0.935 0.448-1.87 0.896-2.83 1.36-1.29 0.621-1.29 0.621-2.6 1.25-2.18 0.944-4.02 1.74-6.38 2.03-0.99-0.66-1.98-1.32-3-2-0.315 0.505-0.629 1.01-0.953 1.53-0.428 0.65-0.856 1.3-1.3 1.97-0.418 0.65-0.835 1.3-1.27 1.97-0.735 0.758-0.735 0.758-1.48 1.53h-4c-0.33 0.66-0.66 1.32-1 2l-2-3c-3.23 0.38-5.03 1.02-7.75 2.88-3.91 2.56-7.8 3.82-12.2 5.12v2c-0.557 0.124-1.11 0.248-1.69 0.375-2.53 0.685-4.89 1.62-7.31 2.62-0.33-1.32-0.66-2.64-1-4-4.08 0.306-6.63 1.28-9.94 3.56-3.81 2.56-6.44 2.71-11.1 2.44-0.66 0.66-1.32 1.32-2 2-1.95 0-3.9-0.00492-5.84-0.0508-5.46 0.128-9.63 2.26-14.2 5.05-1.98 0.711-3.98 1.39-6 2l-2-3c-4.72 1.54-9.42 3.08-14 5v2h-3c-0.66-1.32-1.32-2.64-2-4-5.26 1.13-9.61 2.62-14.3 5.2-1.66 0.805-1.66 0.805-3.66 0.805l-1-3c-3.73 0.498-5.81 0.875-9 3h-3c-0.33-0.66-0.66-1.32-1-2-4.68-0.278-7.68 0.452-11.9 2.5l-2.93 1.41c-0.724 0.361-1.45 0.722-2.2 1.09 0.33-0.99 0.66-1.98 1-3-0.33-0.33-0.66-0.66-1-1-5.02 0.285-5.02 0.285-9 3-2.66 0.565-5.29 0.738-8 1v-3c-0.763 0.165-1.53 0.33-2.31 0.5-2.69 0.5-2.69 0.5-5.69 0.5-0.66-0.66-1.32-1.32-2-2-2.51-0.0655-2.51-0.0655-5 1-1.97 2.29-1.97 2.29-3 5l1 3h2l1-5h2l-2 7c1.98-0.33 3.96-0.66 6-1v2c3 1.33 3 1.33 6 0v4c0.99-0.33 1.98-0.66 3-1 0.33-0.66 0.66-1.32 1-2 3.37 0.25 3.37 0.25 7 1 1.44 2.06 1.44 2.06 2 4 0.846-0.392 1.69-0.784 2.56-1.19 4.52-1.07 6.45-0.0691 10.4 2.19 1.94 2.19 1.94 2.19 3 4 0.99-0.33 1.98-0.66 3-1 0.733-2.02 0.733-2.02 1-4 0.459 0.338 0.918 0.675 1.39 1.02 5.34 4.45 5.34 4.45 11.7 5.66 1.93-0.667 1.93-0.667 3.88-1.69 0.887 0.846 1.77 1.69 2.69 2.56 2.65 2.27 2.65 2.27 6.19 2.25l2.12-0.812v-2c2.57 1.54 5.13 3.08 7.62 4.75 0.784 0.412 1.57 0.825 2.38 1.25 0.99-0.33 1.98-0.66 3-1v-2c5.75 1.62 5.75 1.62 8 5 3.08 0.25 3.08 0.25 6 0v-4c2 2 4 4 6 6 2.42 0.334 2.42 0.334 5 0 1.81-1.4 1.81-1.4 3-3 0.743 0.846 1.48 1.69 2.25 2.56 2.4 2.68 2.4 2.68 4.81 2.38 0.959-0.464 0.959-0.464 1.94-0.938 0.743-0.351 1.48-0.701 2.25-1.06 0.866-0.464 0.866-0.464 1.75-0.938v2c2.21 1.86 2.21 1.86 5 3 2.14-0.715 3.41-1.41 5-3 0.397 0.482 0.794 0.964 1.2 1.46 2.27 1.94 3.6 1.99 6.55 2.16 1.32 0.0986 1.32 0.0986 2.68 0.199l2.57 0.176c6.6 0.733 6.6 0.733 10 3 0.784-0.33 1.57-0.66 2.38-1 2.62-1 2.62-1 5.12-0.125 0.825 0.371 1.65 0.743 2.5 1.12 2.84 0.198 4.45 0.276 7-1 2.13 0.224 4.26 0.528 6.38 0.875 1.14 0.183 2.28 0.366 3.46 0.555 3.16 0.57 3.16 0.57 5.31 1.14 2.09 0.49 3.96 0.532 6.1 0.496 1.24-0.0206 2.48-0.0412 3.75-0.0625 0.33 0.66 0.66 1.32 1 2 0.713-0.168 1.43-0.335 2.16-0.508 6.02-1.28 9.93-1.62 15.8 0.508 3.87 0.352 4.66 0.229 8-2 0.33 0.99 0.66 1.98 1 3 2.17-0.506 4-1 6-2 1.18 0.743 1.18 0.743 2.38 1.5 2.43 1.72 2.43 1.72 4.75 1.31 2.14-0.863 2.14-0.863 4.88-2.81h4c0.33 0.99 0.66 1.98 1 3 3.47-0.458 6.67-0.891 10-2 0.454 0.66 0.908 1.32 1.38 2 0.536 0.66 1.07 1.32 1.62 2h2c0.433-0.66 0.866-1.32 1.31-2 1.69-2 1.69-2 4.38-2.25 0.763 0.0825 1.53 0.165 2.31 0.25 0.66 1.32 1.32 2.64 2 4 3.69-0.498 5.6-1.1 8-4 0.908 0.33 1.82 0.66 2.75 1 3.32 1.2 3.32 1.2 7.25 1 0.99-0.66 1.98-1.32 3-2h2c0.66 1.32 1.32 2.64 2 4h6c0.33-0.99 0.66-1.98 1-3 3.89-1.02 5.61-1.17 9.38 0.438 0.866 0.516 1.73 1.03 2.62 1.56 0.66-0.66 1.32-1.32 2-2 2.97 0.33 5.26 1.11 8 2.31 1.49 0.34 1.49 0.34 3 0.688 1.68-1.32 3.34-2.66 5-4 2.98-1.12 5.05-1.27 8 0 5.79 6.71 8.61 15.6 11.3 23.9 0.764 2.35 1.55 4.68 2.34 7.02 1.21 3.6 2.4 7.2 3.59 10.8 1.07 3.23 2.16 6.46 3.29 9.67 9.04 25.9 14.8 52.9 19 80 0.303 1.95 0.605 3.89 0.908 5.84 0.45 2.9 0.899 5.79 1.35 8.69 0.843 5.48 1.72 10.9 2.62 16.4 3.51 21.6 3.51 21.6 1.62 32.6h2c0.0275 2.29 0.0466 4.58 0.0625 6.88 0.00475 0.681 0.00951 1.36 0.0144 2.06 0.00283 4.79-0.356 9.39-1.15 14.1-0.121 2.09-0.121 2.09 1.55 3.72 0.501 0.407 1 0.815 1.52 1.23 3.12-0.967 4-2.01 5.75-4.81 1.46-3.65 1.28-6.91 1.12-10.8-0.105-3.44-0.105-3.44 0.125-6.38 1.67-1.67 3.33-3.33 5-5 0.151-4.07-0.353-7.98-1-12 0.965-0.431 0.965-0.431 1.95-0.871 2.23-0.944 2.23-0.944 2.86-3.19 0.0619-0.639 0.124-1.28 0.188-1.94-0.33-0.33-0.66-0.66-1-1 0.28-3.64 0.535-6.29 2.56-9.38 1.81-3.3 1.57-5.57 1.25-9.25 0.188-2.38 0.188-2.38 1.62-5.13 1.91-3.98 2.23-7.4 2.56-11.7 0.435-5.63 1.38-9.41 4-14.5 0.25-2.64 0.25-2.64 0-5.25-0.152-4.9 0.703-8.59 2.27-13.2 1.05-3.67 1.22-7.3 1.48-11.1 0.25-2.45 0.25-2.45 1.31-5.45 0.938-3 0.974-4.89 0.875-8-0.144-5.86 1.05-11.1 2.5-16.7 0.588-3.43 0.17-5.87-0.441-9.26 0.495-0.908 0.99-1.82 1.5-2.75 1.89-4.09 1.4-6.71 0.727-11.1-0.227-2.17-0.227-2.17 0.773-4.17 1.07-7.74 1.29-15.5 1.43-23.3 0.0309-0.939 0.0619-1.88 0.0938-2.85 0.0198-0.843 0.0396-1.69 0.0601-2.56 0.498-2.79 1.58-4.21 3.42-6.33-0.464-0.773-0.464-0.773-0.938-1.56-1.41-3.23-1.88-5.91-2.06-9.44 0.983-2.01 1.98-4.01 3-6 0.574-4.3 0.468-7.3-2-11 0.269-3.09 0.764-5.52 2.12-8.31 1.29-3.95 0.7-7.65-0.125-11.7-0.33-0.33-0.66-0.66-1-1-0.294-3.72-0.148-4.78 2-8 0.818-6.67 0.152-12.1-3-18h2c1.27-3.82 1.16-7.42 1.17-11.4 0.00333-0.825 0.00666-1.65 0.0101-2.5 0.00506-1.75 0.00741-3.49 0.00725-5.24 0.00218-2.66 0.0203-5.32 0.0393-7.98 0.00294-1.7 0.00492-3.4 0.00586-5.1 0.00719-0.791 0.0144-1.58 0.0218-2.4-0.0186-4.55-0.612-8.09-2.25-12.4-0.518-4.97 0.728-7.64 3-12 0.708-3.24 0.708-3.24 1-6 0.577 0.681 1.15 1.36 1.75 2.06 2.02 2.18 2.02 2.18 4.31 1.88 1.99-0.821 1.99-0.821 3.3-2.38 1.82-1.74 3.37-2.48 5.7-3.43 5.09-2.16 10-4.61 14.9-7.12 0.33 0.99 0.66 1.98 1 3h4c0.392-1.13 0.784-2.27 1.19-3.44 1.81-3.56 1.81-3.56 4.5-4.5 1.14-0.0309 1.14-0.0309 2.31-0.0625v2c3.31 1.04 4.6 1.19 7.81-0.312 1.08-0.835 1.08-0.835 2.19-1.69v-2c0.603-0.0258 1.21-0.0516 1.83-0.0781 5.32-0.378 7.51-0.89 11.2-4.92 3.75-1.25 3.75-1.25 7-2v-2h2v5c5.14-0.395 8.57-2.29 12.9-4.94 2.15-1.06 2.15-1.06 6.15-1.06 0.33 0.99 0.66 1.98 1 3 4.2-1.22 4.2-1.22 7.88-3.5 3.48-2.46 7.86-3.5 12.1-3.5 0.66 0.99 1.32 1.98 2 3 0.99-0.33 1.98-0.66 3-1v-2h5v-2c0.699-0.049 1.4-0.098 2.12-0.148 0.91-0.0748 1.82-0.15 2.76-0.227 0.905-0.0696 1.81-0.139 2.74-0.211 2.56-0.21 2.56-0.21 4.38-2.41 0.33 1.65 0.66 3.3 1 5 0.866-0.619 1.73-1.24 2.62-1.88 3.81-2.4 7.15-4.48 11.8-3.75 0.804 0.309 0.804 0.309 1.62 0.625 0.33-0.66 0.66-1.32 1-2 0.33 0.99 0.66 1.98 1 3 4.06-0.318 6.41-0.524 9.62-3.12 2.38-1.88 2.38-1.88 5.12-1.75 2.25 0.875 2.25 0.875 3.25 2.88 4.61-1.21 4.61-1.21 9-3v-2c2.81-0.188 2.81-0.188 6 0 1.69 1.5 1.69 1.5 3 3h3v-2c2.25-0.75 2.25-0.75 5-1 2.31 1.94 2.31 1.94 4 4 4.42-1.27 4.42-1.27 8-4 3.73-0.383 4.78-0.149 8 2-0.344-2.47-0.344-2.47-1-5-0.66-0.33-1.32-0.66-2-1-0.625-2.56-0.625-2.56-1-5-0.99-0.33-1.98-0.66-3-1-2.19 1.37-2.19 1.37-4 3-0.598-0.33-1.2-0.66-1.81-1-2.24-1.21-2.24-1.21-5.19-1v-3c-3.88-0.434-3.88-0.434-5.75 1.5-0.619 0.743-0.619 0.743-1.25 1.5v-2c-0.866-0.186-0.866-0.186-1.75-0.375-2.3-0.639-4.19-1.42-6.25-2.62-0.33-0.66-0.66-1.32-1-2-1.98 0.348-1.98 0.348-4 1-0.33 0.66-0.66 1.32-1 2h-2c-0.33-0.66-0.66-1.32-1-2-1.13-0.289-2.27-0.578-3.44-0.875-3.56-1.12-3.56-1.12-5-3.25-0.186-0.619-0.371-1.24-0.562-1.88-1.49 0.99-1.49 0.99-3 2v2h-4v-2c-3.45-3.3-3.45-3.3-8-4-0.33 0.99-0.66 1.98-1 3-0.66-0.66-1.32-1.32-2-2-1.73-0.186-1.73-0.186-3.5-0.375-1.16-0.206-2.31-0.412-3.5-0.625-1.44-2.06-1.44-2.06-2-4-0.598 0.309-1.2 0.619-1.81 0.938-2.19 1.06-2.19 1.06-5.19 2.06-2.26-1.4-4.02-3.2-6-5-1.65 1.32-3.3 2.64-5 4-1.46-1.3-2.93-2.6-4.39-3.91-1.69-1.38-1.69-1.38-4.61-1.09-1.69 1.44-1.69 1.44-3 3-0.33-0.99-0.66-1.98-1-3-0.742 0.0825-1.48 0.165-2.25 0.25-3.53-0.321-4.52-1.6-6.75-4.25-0.598 0.495-1.2 0.99-1.81 1.5-2.19 1.5-2.19 1.5-5.19 1.5-1.69-2-1.69-2-3-4-3.56 0.61-6.68 1.58-10 3-0.33-1.65-0.66-3.3-1-5-2.87 0.573-3.86 0.861-6 3h-4c-0.66-1.32-1.32-2.64-2-4-2.25 0.482-4.03 1.02-6.06 2.12-1.94 0.875-1.94 0.875-4.94-0.125v-3c-3.93 0.575-3.93 0.575-7 3h-2c-0.33-1.32-0.66-2.64-1-4-3.73 0.498-5.81 0.875-9 3-0.66-1.65-1.32-3.3-2-5-0.804 0.433-0.804 0.433-1.62 0.875-2.73 1.29-5.5 2.21-8.38 3.12-0.66-1.65-1.32-3.3-2-5-2.96 0.613-4.38 1.25-7 3h-3c-0.33-0.99-0.66-1.98-1-3-0.99-0.33-1.98-0.66-3-1-0.66 1.32-1.32 2.64-2 4-2.63-1.52-4.84-2.84-7-5-2.98 0.744-2.98 0.744-4.56 2.56-0.474 0.474-0.949 0.949-1.44 1.44h-2c-1.62-2-1.62-2-3-4-5.97 0.936-5.97 0.936-11 4-0.33-1.32-0.66-2.64-1-4-2.93 0.628-5.36 1.59-8 3v-2c-1.12-1.79-1.12-1.79-3-3-3.34 0.245-4.61 0.605-7 3-2.88 0.875-2.88 0.875-6 1-2.38-1.94-2.38-1.94-4-4-3.47 1.98-3.47 1.98-7 4-1.32-1.32-2.64-2.64-4-4-1.98 0.99-1.98 0.99-4 2v2h-5c-0.66-1.65-1.32-3.3-2-5-2.98 0.425-4.93 0.953-7.5 2.56-2.78 1.6-4.35 1.71-7.5 1.44-0.33-0.99-0.66-1.98-1-3-3.49 0.645-6.03 2.1-9 4-0.66-1.65-1.32-3.3-2-5-4.42 1.27-4.42 1.27-8 4-2.69 0.27-5.29 0.0874-8 0-0.33-0.66-0.66-1.32-1-2-3.37 0.547-5.08 1.05-8 3-0.99-1.65-1.98-3.3-3-5-2 0.791-2 0.791-4 2-0.33 0.99-0.66 1.98-1 3-3-1-3-1-3.99-2.76-0.437-1.17-0.437-1.17-0.883-2.37-0.336-0.895-0.673-1.79-1.02-2.71-1.7-4.86-3.3-9.75-4.86-14.6-1.18-3.34-2.66-6.35-4.25-9.52-0.491-1.57-0.929-3.15-1.31-4.75-1.27-4.9-2.8-9.65-4.44-14.4-9.16-27.2-15.6-54.7-19.8-83-0.39-2.58-0.802-5.15-1.23-7.71-6.15-37.1-6.15-37.1-4.32-51.2 0.144-3.22-0.52-5-1.87-7.89-0.935-4.13-1.13-6.97 0.188-10.9 1.06-3.53 0.595-5.29-1.06-8.56-0.685-1.18-1.39-2.35-2.12-3.5h-3zm-337 140c-0.99-0.33-1.98-0.66-3-1-0.66 0.66-1.32 1.32-2 2-0.33-0.99-0.66-1.98-1-3-2.66-0.403-4.43-0.351-6.75 1.08-1.18 0.888-2.35 1.8-3.5 2.73-1.93 1.32-3.47 1.73-5.75 2.19-0.99 0.33-1.98 0.66-3 1l-1-5-2.01 1.06c-0.883 0.455-1.77 0.91-2.68 1.38l-2.64 1.37c-2.59 1.15-4.89 1.75-7.68 2.19v2h-4l-1-4c-3.32 0.948-5.93 1.95-8.81 3.88-3.25 2.17-6.46 3.67-10 5.2-1.45 0.626-2.87 1.3-4.28 2.01-1.94 0.957-3.76 1.47-5.87 1.92l-2-4-3 1-1 5-2-2c-3.12 1.31-3.12 1.31-5 4h-8c-1.76 3.09-2 4.23-2 8l-1.69-1c-2.62-1.13-4.49-1.16-7.31-1l-4 8-3-2c-2.07-0.0675-2.07-0.0675-4 1-1.03 1.65-2.03 3.32-3 5-2.84 3.48-5.17 5.7-9.44 7.25-6.56 3.22-9.71 9.08-12.1 15.8-1.29 3.94-2.41 7.92-3.48 11.9l-0.602 2.07c-3.92 18.9 5.49 38.4 15.6 53.9 2.55 3.77 5.22 7.4 8 11l1.67 2.29c4.06 5.46 8.67 10.2 13.6 14.8 2.15 2.24 3.82 4.32 5.6 6.82 3.11 4.23 6.67 7.16 10.9 10.2 0.737 0.55 1.47 1.1 2.23 1.67 2.33 1.73 4.67 3.44 7.02 5.15 0.75 0.549 1.5 1.1 2.27 1.66 5.22 3.82 10.5 7.59 15.7 11.3 1.08 0.772 1.08 0.772 2.19 1.56 8.34 5.93 16.7 11.8 25.2 17.6 4.91 3.37 9.72 6.85 14.5 10.4 2.16 1.62 2.16 1.62 5.14 2.46v-3c8.21 3.92 15.7 8.27 23.1 13.5 4.05 2.72 6.81 4.36 11.9 3.51 2.35-1.91 2.35-1.91 2.16-5.19l-0.0977-3.81c-0.16-6.8-0.16-6.8 0.938-9 0.414-6.44 0.226-11.9-2-18 0.307-2.7 0.789-4.58 2-7 0.097-1.96 0.13-3.92 0.125-5.88l0.00781-3.18c-0.179-3.97-0.286-6.1-3.13-8.95 0.492-0.597 0.985-1.19 1.49-1.81 2.23-4.72 1.79-9.11 1.63-14.3-0.0435-1.97-0.0827-3.94-0.117-5.91-0.0243-0.869-0.0487-1.74-0.0737-2.63 0.0659-2.39 0.0659-2.39 0.562-4.22 0.771-3.33 0.605-6.67 0.567-10.1-0.00379-0.775-0.00757-1.55-0.0115-2.35-0.0162-3.3-0.0438-6.6-0.0715-9.89-0.0673-8.77-0.0452-17.5 0.458-26.3 0.0392-0.694 0.0785-1.39 0.119-2.1 0.231-3.58 0.71-6.99 1.44-10.5-0.16-2.24-0.16-2.24-0.562-4.44-0.531-4.03-0.132-6.8 1.56-10.6 0.33-0.33 0.66-0.66 1-1 0.25-2.46 0.25-2.46 0-5-0.66-0.66-1.32-1.32-2-2-0.494-5.24 0.368-7.61 3-12 0.334-3.67 0.334-3.67 0-7-0.33-0.33-0.66-0.66-1-1 0.214-1.54 0.435-3.08 0.68-4.62 0.881-6.54 1.13-13.2 1.57-19.8 0.0825-1.17 0.165-2.35 0.25-3.56 0.0722-1.07 0.144-2.13 0.219-3.23 0.239-2.4 0.685-4.5 1.28-6.82 0.235-4.93 0.307-8.52-2-13-0.33-0.33-0.66-0.66-1-1-3.57 0.351-6.93 0.691-10.4 1.69l-1.62 0.312-2-2c-4.95 0-8.94 2.29-13 5zm796 142c-1.47 2.95-1.13 5.59-1.13 8.87-9.57e-4 0.678-0.00191 1.36-0.0029 2.05-6.81e-4 1.43 0.00117 2.87 0.00534 4.3 0.00534 2.19 5.57e-5 4.39-0.00635 6.58 6.61e-4 1.39 0.00194 2.79 0.00391 4.18 0.00113 1.27 0.00226 2.54 0.00342 3.85-0.0154 3.18-0.0154 3.18 1.13 6.15 0.092 1.52 0.13 3.04 0.125 4.56 0.00258 0.785 0.00516 1.57 0.00781 2.38-0.133 2.06-0.133 2.06-1.13 4.06-0.0959 1.64-0.13 3.29-0.125 4.94-0.00258 0.875-0.00516 1.75-0.00781 2.65 0.0346 2.55 0.0346 2.55 1.13 5.41 0.092 1.52 0.13 3.04 0.125 4.56 0.00258 0.785 0.00516 1.57 0.00781 2.38-0.133 2.06-0.133 2.06-1.13 4.06-0.303 4.8-0.135 9.56 0.562 14.3 0.402 3.39 0.312 5.45-0.562 8.69-1.34 5.08-0.697 9.46 0.688 14.5 0.353 2.82-0.331 4.67-1.2 7.33-1.07 4.82-1.73 11.7 0.516 16.2-0.495 0.99-0.495 0.99-1 2-0.236 2.31-0.414 4.62-0.562 6.94-0.0432 0.674-0.0864 1.35-0.131 2.04-0.236 3.95-0.346 7.88-0.307 11.8 0.0269 3.6-0.0508 7.16-0.312 10.8-0.058 0.806-0.116 1.61-0.176 2.44-0.512 2-0.512 2-3.51 4 1.22 2.69 1.22 2.69 3 5 0.0724 2.02 0.0838 4.04 0.0625 6.06-0.00902 1.1-0.018 2.21-0.0273 3.35-0.0116 0.855-0.0232 1.71-0.0352 2.59h-2c-0.678 2.9-0.678 2.9-1 6 0.66 0.66 1.32 1.32 2 2 0.312 2.94 0.312 2.94 0 6-0.495 0.454-0.99 0.908-1.5 1.38-2.12 2.29-1.78 4.39-1.7 7.39 0.165 2.33 0.165 2.33 0.816 4.98 0.479 4.02-0.306 7.47-1.18 11.4-1.5 7.38-1.41 13.5 0.562 20.9 3.6 0.941 5.7 1.09 9.12-0.375 0.663-0.276 1.33-0.552 2.01-0.836 0.616-0.26 1.23-0.521 1.87-0.789 0.99-0.33 1.98-0.66 3-1v2c5.08 0.113 5.08 0.113 10-1 0.66 0.33 1.32 0.66 2 1 0.33-0.66 0.66-1.32 1-2 0.763 0.165 1.53 0.33 2.31 0.5 4.88 0.908 8.29-0.311 12.8-2 6.77-2.5 6.77-2.5 7.88-2.5v2c10.1-2.34 19.9-5.97 29-11v4c4.65-0.485 4.65-0.485 9-2v-2c0.615-0.11 1.23-0.219 1.86-0.332 0.808-0.159 1.62-0.317 2.45-0.48 0.801-0.151 1.6-0.302 2.43-0.457 2.55-0.824 3.44-1.83 5.26-3.73 2.01-0.914 2.01-0.914 4.12-1.62 2.68-0.8 2.68-0.8 4.88-2.38 0.66 1.32 1.32 2.64 2 4 2-0.579 2-0.579 4-2 1.4-2.94 1.4-2.94 2-6-0.33-0.66-0.66-1.32-1-2 0.543 0.3 1.09 0.601 1.64 0.91 0.715 0.38 1.43 0.761 2.17 1.15 0.708 0.383 1.42 0.766 2.14 1.16 2.19 1.08 2.19 1.08 5.04-0.223 0.802-1.87 0.802-1.87 1.19-4.06 0.159-0.733 0.317-1.47 0.48-2.22 0.11-0.566 0.219-1.13 0.332-1.71l1.69 1.56c2.25 1.73 2.25 1.73 5.06 1.12 0.743-0.227 1.49-0.454 2.25-0.688 0.33-2.64 0.66-5.28 1-8 1.05 0.268 2.1 0.536 3.19 0.812 3.8 0.598 3.8 0.598 6.19-1.62 0.885-1.05 1.76-2.12 2.62-3.19 1.46-1.56 2.92-3.13 4.38-4.69 4.33-4.84 8.04-9.91 11.6-15.3 0.745-0.954 0.745-0.954 1.5-1.93 4.45-5.97 5.47-10.6 5.56-18 0.0458-0.925 0.0915-1.85 0.139-2.8 0.199-6.61-0.95-12.1-3.2-18.3-0.345-0.987-0.345-0.987-0.697-1.99-5.65-15.7-14.3-29.5-25.5-41.9-2.08-2.37-4-4.85-5.95-7.33-5.35-6.59-11.5-12.1-17.9-17.8-1.12-0.988-1.12-0.988-2.26-2-1.27-1.11-2.55-2.22-3.83-3.32-1.34-1.18-2.66-2.38-3.95-3.61-5.52-5.18-11.4-9.75-17.5-14.3-1.17-0.873-1.17-0.873-2.37-1.76-6.69-4.89-13.6-9.74-21.3-12.8-6.43-2.73-12.1-6.93-17.8-10.9-3.41-2.34-6.84-4.64-10.3-6.95-0.632-0.429-1.26-0.859-1.91-1.3-2.6-1.75-4.85-3.14-7.84-4.14-0.639 0.184-1.28 0.369-1.94 0.559-2.74 0.586-3.68-0.0819-6.06-1.5l-2.34-1.38c-4.14-2.62-8.21-5.34-12.2-8.11-2.07-1.67-2.07-1.67-3.41-1.57zm-278 92 1 2zm-306 337c-2.44 1.99-2.44 1.99-2.2 5.91 0.669 28.5 6.75 57.4 15.1 84.5 0.242 0.8 0.485 1.6 0.735 2.42 7.46 24.4 18.3 51.6 37.4 69.1 0.963 0.953 1.92 1.91 2.88 2.88 0.701 0.701 1.4 1.4 2.12 2.12l2 2c1.88 0.671 3.76 1.34 5.64 2 3.62 1.53 6.8 3.71 10.1 5.89 2.2 1.32 2.2 1.32 4.47 0.844 1.88-0.726 1.88-0.726 3.83-1.73v3c5.77-0.481 9.96-2.18 15-5 0.66 0.99 1.32 1.98 2 3 5.08-0.504 8.73-1.6 13.2-4.05 1.13-0.615 2.26-1.23 3.42-1.86 1.17-0.652 2.34-1.3 3.51-1.96 1.18-0.646 2.36-1.29 3.54-1.93 10.5-5.51 10.5-5.51 19.3-13.2v-2c1.18-0.165 2.35-0.33 3.56-0.5 4.69-1.15 6.8-3.61 9.7-7.33 3.67-4.58 7.95-8.18 12.6-11.8 5.88-4.78 9.95-10.1 14.2-16.4 1.73-2.39 3.49-4.76 5.25-7.12 4.45-6.05 8.81-12.2 13.1-18.3 3.2-4.56 6.46-9.06 9.75-13.6 7.92-10.8 14.4-21.4 19.3-33.9 1.91-4.76 4.13-8.8 7.14-13 4.18-6.2 7.26-12.6 6.42-20.1-3.58-1-3.58-1-7 0-0.33-0.99-0.66-1.98-1-3-5.97 0.508-10.6 2.39-16 5-0.33-1.32-0.66-2.64-1-4-3.37 0.561-5.98 1.44-9 3h-2c-0.99-1.98-0.99-1.98-2-4-2.48 0.442-3.89 0.909-5.88 2.5-2.66 1.88-4.92 2.14-8.12 2.5-0.33-1.32-0.66-2.64-1-4-2.47 0.344-2.47 0.344-5 1-0.33 0.66-0.66 1.32-1 2h-3c-0.99-1.98-0.99-1.98-2-4-2.89 0.402-4.67 0.744-7 2.56-2.49 1.79-4 1.69-7 1.44-0.33-0.99-0.66-1.98-1-3-3.96 0.565-6.67 1.81-10 4-0.33-1.65-0.66-3.3-1-5-3.89 0.54-5.92 1.64-9 4h-3c-1.69-2.5-1.69-2.5-3-5-1.07 0.66-2.14 1.32-3.25 2-3.06 1.88-3.88 2-7.75 2-0.99-1.48-0.99-1.48-2-3-2.97 0.99-5.94 1.98-9 3l-1-5c-2.92 1.15-5.81 2.36-8.69 3.62-3.31 1.38-3.31 1.38-5.31 1.38-0.99-2.48-0.99-2.48-2-5-1.32 0.66-2.64 1.32-4 2v2h-6l-1-4c-3-0.346-3-0.346-4.56 1.5-0.474 0.495-0.949 0.99-1.44 1.5h-2c-0.99-1.98-0.99-1.98-2-4-2.47 0.344-2.47 0.344-5 1-0.33 0.66-0.66 1.32-1 2-1.98-0.33-3.96-0.66-6-1v-2c-1.98 0.33-3.96 0.66-6 1v2c-1.01-0.473-2.01-0.946-3.05-1.43-6.49-2.43-13.4-2.32-20.2-2.63-2.86-0.146-5.72-0.301-8.59-0.457-0.702-0.0374-1.4-0.0748-2.13-0.113-6.82-0.378-13.6-1.06-20.4-1.93-1.88-0.222-3.77-0.339-5.66-0.433z" fill="#000002"/>
<path transform="translate(1237,990)" d="m0 0c0.33 0.66 0.66 1.32 1 2-0.33 0.66-0.66 1.32-1 2h-2c0.66-1.32 1.32-2.64 2-4z" fill="#000002"/>
<path transform="translate(303,633)" d="m0 0h2v2h-2v-2z" fill="#000002"/>
<path transform="translate(829,1593)" d="m0 0c3 1 3 1 3 1z" fill="#000002"/>
<path transform="translate(710,1579)" d="m0 0h2c-0.33 0.66-0.66 1.32-1 2-0.33-0.66-0.66-1.32-1-2z" fill="#000002"/>
<path transform="translate(408,766)" d="m0 0 2 1-2 1v-2z" fill="#000002"/>
<path transform="translate(575,1179)" d="m0 0 2 1z" fill="#000002"/>
</svg>
