<?xml version="1.0" standalone="no"?>
<!DOCTYPE svg PUBLIC "-//W3C//DTD SVG 20010904//EN"
 "http://www.w3.org/TR/2001/REC-SVG-20010904/DTD/svg10.dtd">
<svg version="1.0" xmlns="http://www.w3.org/2000/svg"
 width="25.200000pt" height="25.200000pt" viewBox="0 0 810.000000 810.000000"
 preserveAspectRatio="xMidYMid meet">

<g transform="translate(150.000000,950.000000) scale(0.100000,-0.100000)"
fill="#000000" stroke="none">
<path d="M3760 5890 c-440 -61 -770 -263 -923 -566 -76 -150 -101 -265 -101
-474 0 -278 57 -433 228 -617 165 -178 314 -253 859 -434 357 -118 452 -161
547 -246 97 -88 128 -205 91 -336 -51 -177 -313 -270 -559 -198 -126 37 -226
155 -256 303 l-13 63 -456 3 c-431 2 -457 1 -457 -15 2 -112 48 -299 100 -410
51 -108 88 -161 188 -265 173 -180 388 -291 691 -356 118 -25 142 -27 381 -27
227 1 266 3 357 23 582 127 932 521 933 1050 0 266 -69 441 -245 616 -164 165
-325 247 -834 426 -560 198 -662 276 -649 499 10 172 123 277 313 288 232 15
409 -115 441 -324 l7 -43 463 0 464 0 -6 58 c-52 515 -376 846 -942 963 -76
16 -147 21 -327 24 -126 2 -259 0 -295 -5z"/>
</g>
</svg>
