<?xml version="1.0" standalone="no"?>
<!DOCTYPE svg PUBLIC "-//W3C//DTD SVG 20010904//EN"
 "http://www.w3.org/TR/2001/REC-SVG-20010904/DTD/svg10.dtd">
<svg version="1.0" xmlns="http://www.w3.org/2000/svg"
 width="25.200000pt" height="25.200000pt" viewBox="0 0 810.000000 810.000000"
 preserveAspectRatio="xMidYMid meet">

<g transform="translate(170.000000,950.000000) scale(0.100000,-0.100000)"
fill="#000000" stroke="none">
<path d="M1190 5855 c0 -3 256 -390 570 -860 313 -470 571 -859 572 -863 2 -5
-246 -404 -550 -887 -305 -483 -556 -884 -559 -891 -4 -12 72 -14 478 -12
l483 3 301 511 c165 281 307 522 316 535 16 24 19 20 373 -513 l356 -538 495
0 c272 0 495 2 495 5 0 3 -257 390 -571 861 -314 471 -573 862 -576 870 -2 7
243 407 546 888 303 481 551 880 551 886 0 7 -153 10 -479 10 l-479 0 -288
-492 c-158 -271 -298 -510 -312 -532 l-24 -38 -354 531 -354 531 -495 0 c-272
0 -495 -2 -495 -5z"/>
<path d="M4960 4100 l0 -1760 985 0 985 0 0 330 0 330 -560 0 -560 0 0 1430 0
1430 -425 0 -425 0 0 -1760z"/>
</g>
</svg>
