<?xml version="1.0" standalone="no"?>
<!DOCTYPE svg PUBLIC "-//W3C//DTD SVG 20010904//EN"
 "http://www.w3.org/TR/2001/REC-SVG-20010904/DTD/svg10.dtd">
<svg version="1.0" xmlns="http://www.w3.org/2000/svg"
 width="25.200000pt" height="25.200000pt" viewBox="0 0 810.000000 810.000000"
 preserveAspectRatio="xMidYMid meet">

<g transform="translate(150.000000,950.000000) scale(0.100000,-0.100000)"
fill="#000000" stroke="none">
<path d="M2065 5848 c-3 -7 -4 -798 -3 -1758 l3 -1745 428 -3 427 -2 0 1052 1
1053 370 -985 c203 -542 381 -1015 395 -1053 l26 -67 345 2 345 3 387 1037
c212 570 390 1040 394 1044 4 4 7 -464 7 -1039 l0 -1047 425 0 425 0 0 1760 0
1760 -502 -2 -502 -3 -483 -1205 c-266 -663 -487 -1208 -491 -1212 -4 -3 -228
539 -498 1205 l-490 1212 -502 3 c-397 2 -504 0 -507 -10z"/>
</g>
</svg>
