<?xml version="1.0" standalone="no"?>
<!DOCTYPE svg PUBLIC "-//W3C//DTD SVG 20010904//EN"
 "http://www.w3.org/TR/2001/REC-SVG-20010904/DTD/svg10.dtd">
<svg version="1.0" xmlns="http://www.w3.org/2000/svg"
 width="34.000000pt" height="34.000000pt" viewBox="0 0 810.000000 810.000000"
 preserveAspectRatio="xMidYMid meet">

<g transform="translate(0.000000,810.000000) scale(0.100000,-0.100000)"
fill="#000000" stroke="none">
<path d="M1152 4728 c221 -332 402 -612 402 -623 0 -15 -593 -970 -768 -1238
l-18 -27 345 0 344 0 223 381 c123 209 226 376 230 372 4 -4 118 -176 253
-380 l246 -373 351 0 c192 0 350 2 350 5 0 3 -180 276 -401 606 -220 331 -403
607 -406 615 -2 7 171 293 386 634 215 341 391 623 391 625 0 3 -154 5 -342 5
l-343 -1 -219 -375 -219 -375 -250 375 -250 376 -354 0 -353 0 402 -602z"/>
<path d="M3296 5318 c4 -7 187 -282 406 -610 219 -329 398 -601 398 -604 0 -5
-679 -1089 -778 -1241 l-14 -23 344 0 344 0 215 366 c118 202 219 373 224 380
7 10 73 -82 260 -366 l250 -379 353 0 c280 -1 352 2 346 12 -4 6 -187 281
-406 609 -219 329 -399 601 -400 606 -2 4 171 284 383 622 212 338 389 621
393 628 6 9 -64 12 -336 12 l-343 0 -219 -375 c-120 -206 -220 -375 -221 -375
-1 0 -114 169 -251 375 l-249 374 -353 1 c-280 0 -352 -3 -346 -12z"/>
<path d="M5960 4085 l0 -1245 700 0 700 0 0 235 0 235 -395 0 -395 0 0 1010 0
1010 -305 0 -305 0 0 -1245z"/>
</g>
</svg>
